<svg width="512" height="512" viewBox="0 0 512 512" fill="none" xmlns="http://www.w3.org/2000/svg">
<rect x="512" y="512" width="512" height="512" rx="256" transform="rotate(180 512 512)" fill="url(#paint0_linear_2010_1376)"/>
<path d="M254.68 225.936L254.705 226.026C251.601 216.392 245.114 207.652 235.515 202.254C215.34 190.748 189.643 197.549 177.995 217.479C166.347 237.408 173.232 262.791 193.407 274.297C203.031 279.786 213.845 280.99 223.819 278.737L223.844 278.827C264.771 269.64 296.528 281.567 308.783 335.057L308.917 334.828C312.148 349.27 321.19 362.368 335.128 370.393C361.681 385.536 395.607 376.557 410.938 350.328C426.268 324.099 417.177 290.586 390.625 275.443C376.595 267.442 360.616 266.346 346.338 270.803L346.472 270.574C293.448 286.835 267.139 265.722 254.68 225.936Z" fill="black"/>
<path d="M200.53 124.014C192.497 137.758 197.25 155.283 211.14 163.127C225.029 170.972 242.794 166.367 250.736 152.647C258.677 138.927 254.015 121.379 240.126 113.534C226.212 105.599 208.471 110.294 200.53 124.014Z" fill="black"/>
<path d="M148.751 269.816C134.845 261.885 117.116 266.578 109.179 280.29C101.15 294.025 105.901 311.539 119.782 319.379C133.687 327.309 151.417 322.617 159.354 308.905C167.382 295.169 162.631 277.656 148.751 269.816Z" fill="black"/>
<path d="M150.947 185.043C147.932 173.929 136.368 167.333 125.117 170.311C113.866 173.289 107.189 184.713 110.204 195.826C113.218 206.94 124.783 213.536 136.034 210.558C147.285 207.58 153.962 196.156 150.947 185.043Z" fill="black"/>
<path d="M311.7 223.042C333.807 235.65 361.954 228.103 374.742 206.356C387.53 184.61 379.865 156.715 357.85 144.083C335.743 131.475 307.596 139.023 294.808 160.769C282.02 182.516 289.685 210.41 311.7 223.042Z" fill="black"/>
<path d="M249.729 329.072C227.622 316.464 199.475 324.011 186.687 345.758C173.923 367.595 181.563 395.399 203.579 408.031C225.594 420.663 253.833 413.091 266.621 391.345C279.384 369.507 271.744 341.704 249.729 329.072Z" fill="black"/>
<defs>
<linearGradient id="paint0_linear_2010_1376" x1="502.518" y1="1047.94" x2="1017.27" y2="498.408" gradientUnits="userSpaceOnUse">
<stop stop-color="#EDEFF3"/>
<stop offset="1" stop-color="#04D28D"/>
</linearGradient>
</defs>
</svg>
